<mxfile host="app.diagrams.net" agent="Mozilla/5.0 (Macintosh; Intel Mac OS X 10_15_7) AppleWebKit/537.36 (KHTML, like Gecko) Chrome/135.0.0.0 Safari/537.36" version="26.2.14">
  <diagram name="Страница — 1" id="Be_eRZIHdWFy3Jatk4P-">
    <mxGraphModel dx="891" dy="620" grid="1" gridSize="10" guides="1" tooltips="1" connect="1" arrows="1" fold="1" page="1" pageScale="1" pageWidth="827" pageHeight="1169" math="0" shadow="0">
      <root>
        <mxCell id="0" />
        <mxCell id="1" parent="0" />
        <mxCell id="2BtHjnwQDWBxKJ9IrgYN-3" value="Kotlin Multiplatform" style="text;html=1;align=center;verticalAlign=middle;whiteSpace=wrap;rounded=0;" parent="1" vertex="1">
          <mxGeometry x="90" y="50" width="100" height="30" as="geometry" />
        </mxCell>
        <mxCell id="2BtHjnwQDWBxKJ9IrgYN-2" value="" style="whiteSpace=wrap;html=1;" parent="1" vertex="1">
          <mxGeometry x="60" y="80" width="160" height="270" as="geometry" />
        </mxCell>
        <mxCell id="2BtHjnwQDWBxKJ9IrgYN-1" value="PersistanceStorage" style="rounded=0;whiteSpace=wrap;html=1;" parent="1" vertex="1">
          <mxGeometry x="70" y="90" width="140" height="40" as="geometry" />
        </mxCell>
        <mxCell id="2BtHjnwQDWBxKJ9IrgYN-4" value="SettingsStorage" style="rounded=0;whiteSpace=wrap;html=1;" parent="1" vertex="1">
          <mxGeometry x="70" y="140" width="140" height="40" as="geometry" />
        </mxCell>
        <mxCell id="2BtHjnwQDWBxKJ9IrgYN-5" value="UI" style="rounded=0;whiteSpace=wrap;html=1;" parent="1" vertex="1">
          <mxGeometry x="70" y="190" width="140" height="40" as="geometry" />
        </mxCell>
        <mxCell id="2BtHjnwQDWBxKJ9IrgYN-6" value="" style="whiteSpace=wrap;html=1;aspect=fixed;" parent="1" vertex="1">
          <mxGeometry x="510" y="310" width="150" height="150" as="geometry" />
        </mxCell>
        <mxCell id="2BtHjnwQDWBxKJ9IrgYN-7" value="iOS" style="text;html=1;align=center;verticalAlign=middle;whiteSpace=wrap;rounded=0;" parent="1" vertex="1">
          <mxGeometry x="535" y="280" width="100" height="30" as="geometry" />
        </mxCell>
        <mxCell id="2BtHjnwQDWBxKJ9IrgYN-8" value="" style="whiteSpace=wrap;html=1;aspect=fixed;" parent="1" vertex="1">
          <mxGeometry x="510" y="50" width="150" height="150" as="geometry" />
        </mxCell>
        <mxCell id="2BtHjnwQDWBxKJ9IrgYN-9" value="Android" style="text;html=1;align=center;verticalAlign=middle;whiteSpace=wrap;rounded=0;" parent="1" vertex="1">
          <mxGeometry x="535" y="20" width="100" height="30" as="geometry" />
        </mxCell>
        <mxCell id="2BtHjnwQDWBxKJ9IrgYN-10" value="DI" style="rounded=0;whiteSpace=wrap;html=1;" parent="1" vertex="1">
          <mxGeometry x="515" y="320" width="140" height="40" as="geometry" />
        </mxCell>
        <mxCell id="2BtHjnwQDWBxKJ9IrgYN-11" value="DI" style="rounded=0;whiteSpace=wrap;html=1;" parent="1" vertex="1">
          <mxGeometry x="515" y="60" width="140" height="40" as="geometry" />
        </mxCell>
        <mxCell id="fwG9W71zHbLrsSI0PTdQ-3" value="Navigation" style="rounded=0;whiteSpace=wrap;html=1;" parent="1" vertex="1">
          <mxGeometry x="515" y="365" width="140" height="40" as="geometry" />
        </mxCell>
        <mxCell id="fwG9W71zHbLrsSI0PTdQ-4" value="Navigation" style="rounded=0;whiteSpace=wrap;html=1;" parent="1" vertex="1">
          <mxGeometry x="515" y="105" width="140" height="40" as="geometry" />
        </mxCell>
        <mxCell id="fwG9W71zHbLrsSI0PTdQ-5" value="" style="endArrow=classic;html=1;rounded=0;exitX=1;exitY=0.471;exitDx=0;exitDy=0;exitPerimeter=0;entryX=0;entryY=0.5;entryDx=0;entryDy=0;edgeStyle=orthogonalEdgeStyle;" parent="1" source="2BtHjnwQDWBxKJ9IrgYN-2" target="2BtHjnwQDWBxKJ9IrgYN-8" edge="1">
          <mxGeometry width="50" height="50" relative="1" as="geometry">
            <mxPoint x="390" y="320" as="sourcePoint" />
            <mxPoint x="440" y="270" as="targetPoint" />
          </mxGeometry>
        </mxCell>
        <mxCell id="fwG9W71zHbLrsSI0PTdQ-6" value="" style="endArrow=classic;html=1;rounded=0;exitX=1;exitY=0.5;exitDx=0;exitDy=0;entryX=0;entryY=0.5;entryDx=0;entryDy=0;edgeStyle=orthogonalEdgeStyle;" parent="1" source="2BtHjnwQDWBxKJ9IrgYN-2" target="2BtHjnwQDWBxKJ9IrgYN-6" edge="1">
          <mxGeometry width="50" height="50" relative="1" as="geometry">
            <mxPoint x="255" y="189" as="sourcePoint" />
            <mxPoint x="520" y="135" as="targetPoint" />
          </mxGeometry>
        </mxCell>
        <mxCell id="fwG9W71zHbLrsSI0PTdQ-8" value="Models" style="rounded=0;whiteSpace=wrap;html=1;" parent="1" vertex="1">
          <mxGeometry x="70" y="290" width="140" height="40" as="geometry" />
        </mxCell>
        <mxCell id="J9xthpqJfNMdTWd5cUrs-1" value="ViewModels" style="rounded=0;whiteSpace=wrap;html=1;" vertex="1" parent="1">
          <mxGeometry x="515" y="150" width="140" height="40" as="geometry" />
        </mxCell>
        <mxCell id="J9xthpqJfNMdTWd5cUrs-2" value="ViewModels" style="rounded=0;whiteSpace=wrap;html=1;" vertex="1" parent="1">
          <mxGeometry x="515" y="410" width="140" height="40" as="geometry" />
        </mxCell>
      </root>
    </mxGraphModel>
  </diagram>
</mxfile>
